<mxfile host="app.diagrams.net" modified="2023-12-25T21:03:17.782Z" agent="Mozilla/5.0 (Windows NT 10.0; Win64; x64) AppleWebKit/537.36 (KHTML, like Gecko) Chrome/118.0.0.0 YaBrowser/23.11.0.0 Safari/537.36" etag="0yN3MliAvR1_S6gEpG23" version="22.1.11" type="github">
  <diagram name="Страница — 1" id="4JKyX90rVQVNTKR3Phcn">
    <mxGraphModel dx="1208" dy="895" grid="1" gridSize="10" guides="1" tooltips="1" connect="1" arrows="1" fold="1" page="1" pageScale="1" pageWidth="827" pageHeight="1169" math="0" shadow="0">
      <root>
        <mxCell id="0" />
        <mxCell id="1" parent="0" />
        <mxCell id="JPjQ6prilL8YwAm5NVX7-1" value="SessionEntity" style="swimlane;fontStyle=0;childLayout=stackLayout;horizontal=1;startSize=26;fillColor=none;horizontalStack=0;resizeParent=1;resizeParentMax=0;resizeLast=0;collapsible=1;marginBottom=0;whiteSpace=wrap;html=1;" vertex="1" parent="1">
          <mxGeometry x="650" y="680" width="140" height="130" as="geometry" />
        </mxCell>
        <mxCell id="JPjQ6prilL8YwAm5NVX7-2" value="+ movie: MovieEntity" style="text;strokeColor=none;fillColor=none;align=left;verticalAlign=top;spacingLeft=4;spacingRight=4;overflow=hidden;rotatable=0;points=[[0,0.5],[1,0.5]];portConstraint=eastwest;whiteSpace=wrap;html=1;" vertex="1" parent="JPjQ6prilL8YwAm5NVX7-1">
          <mxGeometry y="26" width="140" height="26" as="geometry" />
        </mxCell>
        <mxCell id="JPjQ6prilL8YwAm5NVX7-3" value="+ date: LocalDate&lt;br&gt;&lt;br&gt;+ places: Array&amp;lt;Array&amp;lt;Int&amp;gt;&amp;gt;" style="text;strokeColor=none;fillColor=none;align=left;verticalAlign=top;spacingLeft=4;spacingRight=4;overflow=hidden;rotatable=0;points=[[0,0.5],[1,0.5]];portConstraint=eastwest;whiteSpace=wrap;html=1;" vertex="1" parent="JPjQ6prilL8YwAm5NVX7-1">
          <mxGeometry y="52" width="140" height="78" as="geometry" />
        </mxCell>
        <mxCell id="JPjQ6prilL8YwAm5NVX7-9" value="Classname" style="swimlane;fontStyle=0;childLayout=stackLayout;horizontal=1;startSize=26;fillColor=none;horizontalStack=0;resizeParent=1;resizeParentMax=0;resizeLast=0;collapsible=1;marginBottom=0;whiteSpace=wrap;html=1;" vertex="1" parent="1">
          <mxGeometry x="600" y="40" width="140" height="78" as="geometry" />
        </mxCell>
        <mxCell id="JPjQ6prilL8YwAm5NVX7-10" value="+ name: String" style="text;strokeColor=none;fillColor=none;align=left;verticalAlign=top;spacingLeft=4;spacingRight=4;overflow=hidden;rotatable=0;points=[[0,0.5],[1,0.5]];portConstraint=eastwest;whiteSpace=wrap;html=1;" vertex="1" parent="JPjQ6prilL8YwAm5NVX7-9">
          <mxGeometry y="26" width="140" height="26" as="geometry" />
        </mxCell>
        <mxCell id="JPjQ6prilL8YwAm5NVX7-11" value="+ duration: Duration" style="text;strokeColor=none;fillColor=none;align=left;verticalAlign=top;spacingLeft=4;spacingRight=4;overflow=hidden;rotatable=0;points=[[0,0.5],[1,0.5]];portConstraint=eastwest;whiteSpace=wrap;html=1;" vertex="1" parent="JPjQ6prilL8YwAm5NVX7-9">
          <mxGeometry y="52" width="140" height="26" as="geometry" />
        </mxCell>
        <mxCell id="JPjQ6prilL8YwAm5NVX7-13" value="LocalDateSerializer" style="swimlane;fontStyle=1;align=center;verticalAlign=top;childLayout=stackLayout;horizontal=1;startSize=26;horizontalStack=0;resizeParent=1;resizeParentMax=0;resizeLast=0;collapsible=1;marginBottom=0;whiteSpace=wrap;html=1;" vertex="1" parent="1">
          <mxGeometry x="270" y="30" width="160" height="150" as="geometry" />
        </mxCell>
        <mxCell id="JPjQ6prilL8YwAm5NVX7-14" value="+ :descriptor: SerialDescriptor" style="text;strokeColor=none;fillColor=none;align=left;verticalAlign=top;spacingLeft=4;spacingRight=4;overflow=hidden;rotatable=0;points=[[0,0.5],[1,0.5]];portConstraint=eastwest;whiteSpace=wrap;html=1;" vertex="1" parent="JPjQ6prilL8YwAm5NVX7-13">
          <mxGeometry y="26" width="160" height="34" as="geometry" />
        </mxCell>
        <mxCell id="JPjQ6prilL8YwAm5NVX7-15" value="" style="line;strokeWidth=1;fillColor=none;align=left;verticalAlign=middle;spacingTop=-1;spacingLeft=3;spacingRight=3;rotatable=0;labelPosition=right;points=[];portConstraint=eastwest;strokeColor=inherit;" vertex="1" parent="JPjQ6prilL8YwAm5NVX7-13">
          <mxGeometry y="60" width="160" height="8" as="geometry" />
        </mxCell>
        <mxCell id="JPjQ6prilL8YwAm5NVX7-16" value="+&amp;nbsp;serialize(encoder: Encoder, value: LocalDate): Unit&lt;br&gt;+&amp;nbsp;deserialize(decoder: Decoder): LocalDate&lt;br&gt;&amp;nbsp;" style="text;strokeColor=none;fillColor=none;align=left;verticalAlign=top;spacingLeft=4;spacingRight=4;overflow=hidden;rotatable=0;points=[[0,0.5],[1,0.5]];portConstraint=eastwest;whiteSpace=wrap;html=1;" vertex="1" parent="JPjQ6prilL8YwAm5NVX7-13">
          <mxGeometry y="68" width="160" height="82" as="geometry" />
        </mxCell>
        <mxCell id="JPjQ6prilL8YwAm5NVX7-17" value="DurationSerializer" style="swimlane;fontStyle=1;align=center;verticalAlign=top;childLayout=stackLayout;horizontal=1;startSize=26;horizontalStack=0;resizeParent=1;resizeParentMax=0;resizeLast=0;collapsible=1;marginBottom=0;whiteSpace=wrap;html=1;" vertex="1" parent="1">
          <mxGeometry x="40" y="30" width="160" height="150" as="geometry" />
        </mxCell>
        <mxCell id="JPjQ6prilL8YwAm5NVX7-18" value="+ :descriptor: SerialDescriptor" style="text;strokeColor=none;fillColor=none;align=left;verticalAlign=top;spacingLeft=4;spacingRight=4;overflow=hidden;rotatable=0;points=[[0,0.5],[1,0.5]];portConstraint=eastwest;whiteSpace=wrap;html=1;" vertex="1" parent="JPjQ6prilL8YwAm5NVX7-17">
          <mxGeometry y="26" width="160" height="34" as="geometry" />
        </mxCell>
        <mxCell id="JPjQ6prilL8YwAm5NVX7-19" value="" style="line;strokeWidth=1;fillColor=none;align=left;verticalAlign=middle;spacingTop=-1;spacingLeft=3;spacingRight=3;rotatable=0;labelPosition=right;points=[];portConstraint=eastwest;strokeColor=inherit;" vertex="1" parent="JPjQ6prilL8YwAm5NVX7-17">
          <mxGeometry y="60" width="160" height="8" as="geometry" />
        </mxCell>
        <mxCell id="JPjQ6prilL8YwAm5NVX7-20" value="+&amp;nbsp;serialize(encoder: Encoder, value: Duration): Unit&lt;br&gt;+&amp;nbsp;deserialize(decoder: Decoder): Duration&lt;br&gt;&amp;nbsp;" style="text;strokeColor=none;fillColor=none;align=left;verticalAlign=top;spacingLeft=4;spacingRight=4;overflow=hidden;rotatable=0;points=[[0,0.5],[1,0.5]];portConstraint=eastwest;whiteSpace=wrap;html=1;" vertex="1" parent="JPjQ6prilL8YwAm5NVX7-17">
          <mxGeometry y="68" width="160" height="82" as="geometry" />
        </mxCell>
        <mxCell id="JPjQ6prilL8YwAm5NVX7-21" value="SessionDao" style="swimlane;fontStyle=1;align=center;verticalAlign=top;childLayout=stackLayout;horizontal=1;startSize=26;horizontalStack=0;resizeParent=1;resizeParentMax=0;resizeLast=0;collapsible=1;marginBottom=0;whiteSpace=wrap;html=1;" vertex="1" parent="1">
          <mxGeometry x="640" y="430" width="160" height="190" as="geometry" />
        </mxCell>
        <mxCell id="JPjQ6prilL8YwAm5NVX7-22" value="-&amp;nbsp;session: SessionEntity" style="text;strokeColor=none;fillColor=none;align=left;verticalAlign=top;spacingLeft=4;spacingRight=4;overflow=hidden;rotatable=0;points=[[0,0.5],[1,0.5]];portConstraint=eastwest;whiteSpace=wrap;html=1;" vertex="1" parent="JPjQ6prilL8YwAm5NVX7-21">
          <mxGeometry y="26" width="160" height="26" as="geometry" />
        </mxCell>
        <mxCell id="JPjQ6prilL8YwAm5NVX7-23" value="" style="line;strokeWidth=1;fillColor=none;align=left;verticalAlign=middle;spacingTop=-1;spacingLeft=3;spacingRight=3;rotatable=0;labelPosition=right;points=[];portConstraint=eastwest;strokeColor=inherit;" vertex="1" parent="JPjQ6prilL8YwAm5NVX7-21">
          <mxGeometry y="52" width="160" height="8" as="geometry" />
        </mxCell>
        <mxCell id="JPjQ6prilL8YwAm5NVX7-24" value="+&amp;nbsp;getPlaces(): Array&amp;lt;Array&amp;lt;Int&amp;gt;&amp;gt;&lt;br&gt;&lt;br&gt;+&amp;nbsp;occupy(choice: Pair&amp;lt;Int, Int&amp;gt;): Unit&lt;br&gt;&lt;br&gt;+&amp;nbsp;free(place: Pair&amp;lt;Int, Int&amp;gt;): Unit" style="text;strokeColor=none;fillColor=none;align=left;verticalAlign=top;spacingLeft=4;spacingRight=4;overflow=hidden;rotatable=0;points=[[0,0.5],[1,0.5]];portConstraint=eastwest;whiteSpace=wrap;html=1;" vertex="1" parent="JPjQ6prilL8YwAm5NVX7-21">
          <mxGeometry y="60" width="160" height="130" as="geometry" />
        </mxCell>
        <mxCell id="JPjQ6prilL8YwAm5NVX7-25" value="1" style="endArrow=open;html=1;endSize=12;startArrow=diamondThin;startSize=14;startFill=0;edgeStyle=orthogonalEdgeStyle;align=left;verticalAlign=bottom;rounded=0;exitX=0.488;exitY=1.005;exitDx=0;exitDy=0;exitPerimeter=0;entryX=0.5;entryY=0;entryDx=0;entryDy=0;" edge="1" parent="1" source="JPjQ6prilL8YwAm5NVX7-24" target="JPjQ6prilL8YwAm5NVX7-1">
          <mxGeometry x="-1" y="3" relative="1" as="geometry">
            <mxPoint x="330" y="530" as="sourcePoint" />
            <mxPoint x="490" y="530" as="targetPoint" />
          </mxGeometry>
        </mxCell>
        <mxCell id="JPjQ6prilL8YwAm5NVX7-26" value="CinemaValidator" style="swimlane;fontStyle=1;align=center;verticalAlign=top;childLayout=stackLayout;horizontal=1;startSize=26;horizontalStack=0;resizeParent=1;resizeParentMax=0;resizeLast=0;collapsible=1;marginBottom=0;whiteSpace=wrap;html=1;" vertex="1" parent="1">
          <mxGeometry x="60" y="240" width="290" height="160" as="geometry" />
        </mxCell>
        <mxCell id="JPjQ6prilL8YwAm5NVX7-28" value="" style="line;strokeWidth=1;fillColor=none;align=left;verticalAlign=middle;spacingTop=-1;spacingLeft=3;spacingRight=3;rotatable=0;labelPosition=right;points=[];portConstraint=eastwest;strokeColor=inherit;" vertex="1" parent="JPjQ6prilL8YwAm5NVX7-26">
          <mxGeometry y="26" width="290" height="8" as="geometry" />
        </mxCell>
        <mxCell id="JPjQ6prilL8YwAm5NVX7-29" value="+&amp;nbsp;validatePlace(places: Array&amp;lt;Array&amp;lt;Int&amp;gt;&amp;gt;, desire: Pair&amp;lt;Int, Int&amp;gt;): Result&lt;br&gt;+ validateDate(date: LocalDate): Result&lt;br&gt;+&amp;nbsp;&amp;lt;T&amp;gt; validateList(list: MutableList&amp;lt;T&amp;gt;): Result&lt;br&gt;+&amp;nbsp;validateSession(map: MutableMap&amp;lt;LocalDate, SessionEntity&amp;gt;, session: SessionEntity): Result&lt;br&gt;+&amp;nbsp;validateMovie(map: MutableMap&amp;lt;String, MovieEntity&amp;gt;, movie: MovieEntity): Result" style="text;strokeColor=none;fillColor=none;align=left;verticalAlign=top;spacingLeft=4;spacingRight=4;overflow=hidden;rotatable=0;points=[[0,0.5],[1,0.5]];portConstraint=eastwest;whiteSpace=wrap;html=1;" vertex="1" parent="JPjQ6prilL8YwAm5NVX7-26">
          <mxGeometry y="34" width="290" height="126" as="geometry" />
        </mxCell>
        <mxCell id="JPjQ6prilL8YwAm5NVX7-30" value="OutputModel" style="swimlane;fontStyle=0;childLayout=stackLayout;horizontal=1;startSize=26;fillColor=none;horizontalStack=0;resizeParent=1;resizeParentMax=0;resizeLast=0;collapsible=1;marginBottom=0;whiteSpace=wrap;html=1;" vertex="1" parent="1">
          <mxGeometry x="320" y="740" width="140" height="52" as="geometry" />
        </mxCell>
        <mxCell id="JPjQ6prilL8YwAm5NVX7-31" value="+ message: String" style="text;strokeColor=none;fillColor=none;align=left;verticalAlign=top;spacingLeft=4;spacingRight=4;overflow=hidden;rotatable=0;points=[[0,0.5],[1,0.5]];portConstraint=eastwest;whiteSpace=wrap;html=1;" vertex="1" parent="JPjQ6prilL8YwAm5NVX7-30">
          <mxGeometry y="26" width="140" height="26" as="geometry" />
        </mxCell>
        <mxCell id="JPjQ6prilL8YwAm5NVX7-34" value="Result" style="swimlane;fontStyle=0;childLayout=stackLayout;horizontal=1;startSize=26;fillColor=none;horizontalStack=0;resizeParent=1;resizeParentMax=0;resizeLast=0;collapsible=1;marginBottom=0;whiteSpace=wrap;html=1;" vertex="1" parent="1">
          <mxGeometry x="210" y="480" width="140" height="52" as="geometry" />
        </mxCell>
        <mxCell id="JPjQ6prilL8YwAm5NVX7-38" value="Extends" style="endArrow=block;endSize=16;endFill=0;html=1;rounded=0;entryX=0.5;entryY=1;entryDx=0;entryDy=0;" edge="1" parent="1" target="JPjQ6prilL8YwAm5NVX7-34">
          <mxGeometry width="160" relative="1" as="geometry">
            <mxPoint x="200" y="620" as="sourcePoint" />
            <mxPoint x="370" y="410" as="targetPoint" />
          </mxGeometry>
        </mxCell>
        <mxCell id="JPjQ6prilL8YwAm5NVX7-39" value="Success" style="swimlane;fontStyle=1;align=center;verticalAlign=top;childLayout=stackLayout;horizontal=1;startSize=26;horizontalStack=0;resizeParent=1;resizeParentMax=0;resizeLast=0;collapsible=1;marginBottom=0;whiteSpace=wrap;html=1;" vertex="1" parent="1">
          <mxGeometry x="110" y="620" width="160" height="34" as="geometry" />
        </mxCell>
        <mxCell id="JPjQ6prilL8YwAm5NVX7-43" value="Error" style="swimlane;fontStyle=0;childLayout=stackLayout;horizontal=1;startSize=26;fillColor=none;horizontalStack=0;resizeParent=1;resizeParentMax=0;resizeLast=0;collapsible=1;marginBottom=0;whiteSpace=wrap;html=1;" vertex="1" parent="1">
          <mxGeometry x="310" y="602" width="170" height="52" as="geometry" />
        </mxCell>
        <mxCell id="JPjQ6prilL8YwAm5NVX7-44" value="+ outputModel: OutputModel" style="text;strokeColor=none;fillColor=none;align=left;verticalAlign=top;spacingLeft=4;spacingRight=4;overflow=hidden;rotatable=0;points=[[0,0.5],[1,0.5]];portConstraint=eastwest;whiteSpace=wrap;html=1;" vertex="1" parent="JPjQ6prilL8YwAm5NVX7-43">
          <mxGeometry y="26" width="170" height="26" as="geometry" />
        </mxCell>
        <mxCell id="JPjQ6prilL8YwAm5NVX7-49" value="" style="endArrow=none;html=1;rounded=0;entryX=0.5;entryY=0;entryDx=0;entryDy=0;" edge="1" parent="1" source="JPjQ6prilL8YwAm5NVX7-44" target="JPjQ6prilL8YwAm5NVX7-30">
          <mxGeometry width="50" height="50" relative="1" as="geometry">
            <mxPoint x="270" y="540" as="sourcePoint" />
            <mxPoint x="320" y="490" as="targetPoint" />
          </mxGeometry>
        </mxCell>
        <mxCell id="JPjQ6prilL8YwAm5NVX7-50" value="" style="endArrow=none;html=1;rounded=0;exitX=0.5;exitY=0;exitDx=0;exitDy=0;entryX=0.492;entryY=1.005;entryDx=0;entryDy=0;entryPerimeter=0;" edge="1" parent="1" source="JPjQ6prilL8YwAm5NVX7-34" target="JPjQ6prilL8YwAm5NVX7-29">
          <mxGeometry width="50" height="50" relative="1" as="geometry">
            <mxPoint x="390" y="480" as="sourcePoint" />
            <mxPoint x="440" y="430" as="targetPoint" />
          </mxGeometry>
        </mxCell>
        <mxCell id="JPjQ6prilL8YwAm5NVX7-51" value="Extends" style="endArrow=block;endSize=16;endFill=0;html=1;rounded=0;exitX=0.5;exitY=0;exitDx=0;exitDy=0;" edge="1" parent="1" source="JPjQ6prilL8YwAm5NVX7-43">
          <mxGeometry width="160" relative="1" as="geometry">
            <mxPoint x="330" y="450" as="sourcePoint" />
            <mxPoint x="290" y="530" as="targetPoint" />
          </mxGeometry>
        </mxCell>
        <mxCell id="JPjQ6prilL8YwAm5NVX7-52" value="CinemaDao" style="swimlane;fontStyle=1;align=center;verticalAlign=top;childLayout=stackLayout;horizontal=1;startSize=26;horizontalStack=0;resizeParent=1;resizeParentMax=0;resizeLast=0;collapsible=1;marginBottom=0;whiteSpace=wrap;html=1;" vertex="1" parent="1">
          <mxGeometry x="490" y="200" width="160" height="138" as="geometry" />
        </mxCell>
        <mxCell id="JPjQ6prilL8YwAm5NVX7-53" value="+ sessions: mutableMapOf&amp;lt;LocalDate, SessionEntity&amp;gt;&lt;br&gt;+&amp;nbsp;movies = mutableMapOf&amp;lt;String, MovieEntity&amp;gt;()" style="text;strokeColor=none;fillColor=none;align=left;verticalAlign=top;spacingLeft=4;spacingRight=4;overflow=hidden;rotatable=0;points=[[0,0.5],[1,0.5]];portConstraint=eastwest;whiteSpace=wrap;html=1;" vertex="1" parent="JPjQ6prilL8YwAm5NVX7-52">
          <mxGeometry y="26" width="160" height="104" as="geometry" />
        </mxCell>
        <mxCell id="JPjQ6prilL8YwAm5NVX7-54" value="" style="line;strokeWidth=1;fillColor=none;align=left;verticalAlign=middle;spacingTop=-1;spacingLeft=3;spacingRight=3;rotatable=0;labelPosition=right;points=[];portConstraint=eastwest;strokeColor=inherit;" vertex="1" parent="JPjQ6prilL8YwAm5NVX7-52">
          <mxGeometry y="130" width="160" height="8" as="geometry" />
        </mxCell>
        <mxCell id="JPjQ6prilL8YwAm5NVX7-56" value="" style="endArrow=none;html=1;rounded=0;entryX=0.488;entryY=0.931;entryDx=0;entryDy=0;entryPerimeter=0;exitX=0.5;exitY=0;exitDx=0;exitDy=0;" edge="1" parent="1" source="JPjQ6prilL8YwAm5NVX7-21" target="JPjQ6prilL8YwAm5NVX7-54">
          <mxGeometry width="50" height="50" relative="1" as="geometry">
            <mxPoint x="310" y="410" as="sourcePoint" />
            <mxPoint x="360" y="360" as="targetPoint" />
          </mxGeometry>
        </mxCell>
      </root>
    </mxGraphModel>
  </diagram>
</mxfile>
